<?xml version="1.0" standalone="no"?>
<!DOCTYPE svg PUBLIC "-//W3C//DTD SVG 20010904//EN"
 "http://www.w3.org/TR/2001/REC-SVG-20010904/DTD/svg10.dtd">
<svg version="1.0" xmlns="http://www.w3.org/2000/svg"
 width="300.000000pt" height="300.000000pt" viewBox="0 0 300.000000 300.000000"
 preserveAspectRatio="xMidYMid meet">

<g transform="translate(0.000000,300.000000) scale(0.100000,-0.100000)"
fill="#000000" stroke="none">
<path d="M1891 1794 c0 -11 3 -14 6 -6 3 7 2 16 -1 19 -3 4 -6 -2 -5 -13z"/>
<path d="M1891 1664 c0 -11 3 -14 6 -6 3 7 2 16 -1 19 -3 4 -6 -2 -5 -13z"/>
<path d="M1300 1540 l0 -50 50 0 50 0 0 50 0 50 -50 0 -50 0 0 -50z"/>
<path d="M575 1444 c-20 -20 -2 -46 29 -42 24 4 34 37 14 49 -18 12 -24 11
-43 -7z"/>
<path d="M956 1447 c-10 -7 -21 -29 -25 -47 -4 -19 -13 -34 -19 -32 -7 1 -12
-9 -12 -23 0 -16 6 -25 15 -25 12 0 15 -15 15 -75 l0 -75 30 0 30 0 0 75 c0
68 2 75 20 75 15 0 20 7 20 25 0 19 -5 25 -21 25 -30 0 -22 44 9 48 14 2 22
10 22 23 0 15 -7 19 -33 19 -18 0 -41 -6 -51 -13z"/>
<path d="M570 1271 l0 -101 30 0 31 0 -3 98 -3 97 -27 3 -28 3 0 -100z"/>
<path d="M680 1270 l0 -100 30 0 30 0 0 70 c0 58 3 71 19 80 34 17 51 -12 51
-86 0 -62 1 -64 25 -64 25 0 25 1 25 83 0 69 -3 87 -18 100 -23 21 -66 22 -83
1 -11 -14 -13 -14 -21 0 -5 9 -20 16 -33 16 -25 0 -25 -1 -25 -100z"/>
<path d="M1104 1360 c-60 -24 -73 -112 -25 -161 23 -23 38 -29 71 -29 52 0 76
13 95 50 48 92 -41 180 -141 140z m86 -61 c14 -26 12 -50 -7 -71 -20 -22 -37
-23 -57 -2 -23 23 -20 70 5 88 24 17 45 12 59 -15z"/>
<path d="M1307 1293 c-4 -3 -7 -26 -7 -50 l0 -43 50 0 50 0 0 50 0 50 -43 0
c-24 0 -47 -3 -50 -7z"/>
<path d="M1300 1100 l0 -50 50 0 50 0 0 50 0 50 -50 0 -50 0 0 -50z"/>
</g>
</svg>
